<?xml version="1.0" standalone="no"?><!DOCTYPE svg PUBLIC "-//W3C//DTD SVG 1.1//EN" "http://www.w3.org/Graphics/SVG/1.1/DTD/svg11.dtd"><svg width="32" height="32" viewBox="0 0 32 32" version="1.1" xmlns="http://www.w3.org/2000/svg" xmlns:xlink="http://www.w3.org/1999/xlink"><defs><style type="text/css"><![CDATA[

]]></style></defs><g class="transform-group"><g transform="scale(0.03125, 0.03125)"><path d="M253.9 827.5h-43c-87 0-157.8-70.8-157.8-157.8S123.8 512 210.8 512h43v315.5z m-43.1-286.8c-71.2 0-129.1 57.9-129.1 129.1s57.9 129.1 129.1 129.1h14.3V540.7h-14.3zM813.2 827.5h-43V512h43c87 0 157.8 70.8 157.8 157.8s-70.8 157.7-157.8 157.7z m-14.4-28.7h14.3c71.2 0 129.1-57.9 129.1-129.1s-57.9-129.1-129.1-129.1h-14.3v258.2zM253.9 569.4h-28.7V440.3c0-2.4 3.3-243.8 286.8-243.8s286.8 241.4 286.8 243.8v86h-28.7v-86c0-8.8-3.7-215.1-258.1-215.1-255.2 0-258.1 206.3-258.1 215.1v129.1z" fill="#33475f"></path></g></g></svg>